<svg width="278" height="48" viewBox="0 0 278 48" fill="none" xmlns="http://www.w3.org/2000/svg">
<g clip-path="url(#clip0_1_27)">
<path d="M178.428 0.0200958H220.108V7.71646H203.574V48.206H195.306V7.71646H178.428V0.0200958Z" fill="white"/>
<path d="M109.879 0.0200958V7.71646H76.4698V20.0975H103.338V27.7939H76.4698V40.5096H109.879V48.206H68.2026V7.71646H68.1992V0.0200958H109.879Z" fill="white"/>
<path d="M130.692 0.0401917H119.872L158.624 48.2261H169.475L150.097 24.1497L169.444 0.0769544L158.624 0.0936815L144.68 17.4196L130.692 0.0401917Z" fill="white"/>
<path d="M141.794 34.4596L136.376 27.7202L119.842 48.2628H130.692L141.794 34.4596Z" fill="white"/>
<path fill-rule="evenodd" clip-rule="evenodd" d="M68.4923 48.206L29.6883 0H19.3544V48.1859H27.6216V10.2997L58.1067 48.206H68.4923Z" fill="white"/>
<path d="M221.967 47.9117C221.361 47.9117 220.846 47.7019 220.415 47.2822C219.984 46.8625 219.77 46.3545 219.776 45.7526C219.77 45.1672 219.984 44.6647 220.415 44.245C220.846 43.8253 221.361 43.6155 221.967 43.6155C222.549 43.6155 223.059 43.8253 223.49 44.245C223.927 44.6647 224.145 45.1672 224.151 45.7526C224.145 46.1501 224.044 46.5146 223.843 46.8404C223.636 47.1717 223.373 47.4313 223.042 47.619C222.717 47.8123 222.358 47.9117 221.967 47.9117Z" fill="white"/>
<path d="M236.077 27.6123H239.74V41.7324C239.735 43.0301 239.454 44.1401 238.906 45.0733C238.351 46.0065 237.584 46.7188 236.598 47.2214C235.618 47.7183 234.469 47.9724 233.164 47.9724C231.971 47.9724 230.901 47.757 229.949 47.3374C228.997 46.9177 228.24 46.2882 227.686 45.4598C227.125 44.6315 226.851 43.5989 226.851 42.3619H230.52C230.526 42.9031 230.649 43.3724 230.884 43.7645C231.119 44.1566 231.444 44.4547 231.859 44.6646C232.279 44.8745 232.761 44.9794 233.304 44.9794C233.892 44.9794 234.396 44.8579 234.805 44.6094C235.214 44.3664 235.528 44.002 235.747 43.516C235.959 43.0356 236.071 42.4392 236.077 41.7324V27.6123Z" fill="white"/>
<path d="M254.814 33.1345C254.725 32.2785 254.332 31.6104 253.649 31.1355C252.96 30.655 252.069 30.4176 250.977 30.4176C250.21 30.4176 249.549 30.5336 249 30.76C248.451 30.9919 248.025 31.3011 247.734 31.6932C247.443 32.0853 247.297 32.5326 247.285 33.0351C247.285 33.4548 247.386 33.8192 247.582 34.123C247.778 34.4322 248.041 34.6917 248.383 34.9016C248.719 35.1169 249.095 35.2936 249.504 35.4372C249.918 35.5808 250.333 35.7023 250.747 35.8017L252.657 36.271C253.425 36.4477 254.17 36.6852 254.881 36.9889C255.592 37.2871 256.237 37.6681 256.802 38.1265C257.368 38.5848 257.817 39.137 258.147 39.7831C258.477 40.4292 258.646 41.1857 258.646 42.0582C258.646 43.2344 258.343 44.2671 257.732 45.1616C257.122 46.0506 256.242 46.7465 255.088 47.249C253.94 47.746 252.551 48 250.915 48C249.336 48 247.958 47.7571 246.798 47.2711C245.633 46.7907 244.725 46.0838 244.07 45.1561C243.415 44.2284 243.062 43.0963 243.011 41.7655H246.642C246.692 42.4613 246.916 43.0412 247.297 43.5105C247.683 43.9744 248.187 44.3168 248.804 44.5487C249.426 44.7751 250.12 44.8911 250.887 44.8911C251.689 44.8911 252.394 44.7695 253.005 44.5321C253.61 44.2946 254.086 43.9634 254.428 43.5327C254.775 43.1074 254.949 42.6049 254.954 42.0306C254.949 41.506 254.791 41.0697 254.489 40.7273C254.181 40.385 253.755 40.0979 253.212 39.8659C252.663 39.634 252.024 39.4242 251.296 39.2419L248.977 38.6566C247.302 38.2314 245.975 37.5853 245.005 36.7184C244.031 35.8514 243.549 34.7028 243.549 33.2615C243.549 32.0798 243.874 31.0417 244.53 30.1526C245.179 29.2635 246.07 28.5732 247.196 28.0818C248.328 27.5848 249.605 27.3418 251.027 27.3418C252.473 27.3418 253.738 27.5848 254.831 28.0818C255.923 28.5732 256.78 29.258 257.402 30.1304C258.024 31.003 258.349 32.0024 258.366 33.1345H254.814Z" fill="white"/>
</g>
<defs>
<clipPath id="clip0_1_27">
<rect width="278" height="48" fill="white"/>
</clipPath>
</defs>
</svg>
